<?xml version="1.0" encoding="UTF-8"?><svg id="_レイヤー_2" xmlns="http://www.w3.org/2000/svg" viewBox="0 0 313.26 112.96"><defs><style>.cls-1{fill:#fff;}</style></defs><g id="_レイヤー_1のコピー"><path class="cls-1" d="M154.05,93.29l-7.3,19.17h6.27l1.07-3.12h5.82l1.07,3.12h6.27l-7.3-19.17h-5.93ZM158.27,104.59h-2.52l1.26-3.59,1.26,3.59Z"/><rect class="cls-1" x="169.06" y="93.29" width="5.87" height="19.17"/><path class="cls-1" d="M18.6,100.33c-.39-.13-.78-.25-1.18-.37-.36-.1-.68-.22-.95-.36-.24-.12-.43-.25-.58-.41-.05-.06-.13-.16-.13-.38,0-.27.1-.47.33-.64.51-.38,1.42-.43,2.38-.05.45.18.91.45,1.37.83l.57.47,2.46-4.83-.52-.28c-.93-.49-1.91-.88-2.92-1.14-2.13-.54-4.13-.51-5.73.08-.85.31-1.57.76-2.16,1.34-.59.57-1.05,1.27-1.38,2.06-.32.79-.49,1.68-.49,2.64s.16,1.81.47,2.46c.31.65.73,1.21,1.25,1.64.5.42,1.08.76,1.71,1.02.59.24,1.21.45,1.8.64.5.17.92.33,1.27.47.3.12.55.25.73.39.14.11.24.22.3.33.06.12.08.27.08.44,0,.28-.12.52-.37.76-.51.47-1.86.5-3.08-.04-.62-.27-1.27-.71-1.92-1.28l-.57-.5-2.61,4.9.43.3c2.03,1.42,4.27,2.13,6.66,2.13,1.16,0,2.22-.16,3.14-.47.94-.32,1.74-.77,2.4-1.36.66-.59,1.17-1.31,1.51-2.14.34-.81.51-1.73.51-2.73,0-1.5-.4-2.75-1.2-3.71-.78-.93-1.99-1.68-3.62-2.22Z"/><polygon class="cls-1" points="36.58 100.23 31.02 100.23 31.02 93.29 25.16 93.29 25.16 112.46 31.02 112.46 31.02 105.04 36.58 105.04 36.58 112.46 42.45 112.46 42.45 93.29 36.58 93.29 36.58 100.23"/><rect class="cls-1" x="45.02" y="93.29" width="5.87" height="19.17"/><path class="cls-1" d="M67.42,103.46c-.34-.44-.79-.82-1.33-1.12-.22-.12-.45-.23-.71-.33.29-.29.53-.62.72-.97.37-.68.56-1.54.56-2.54,0-1.66-.5-2.96-1.48-3.87-.97-.9-2.37-1.35-4.17-1.35h-7.56v19.17h8.11c1.01,0,1.93-.12,2.74-.36.84-.24,1.56-.62,2.16-1.12.6-.5,1.07-1.13,1.4-1.86.33-.73.49-1.56.49-2.49,0-.59-.07-1.15-.21-1.68-.15-.55-.4-1.05-.74-1.5ZM59.59,100.34h-.26v-2.29h.26c1.4,0,1.6.55,1.6,1.14s-.19,1.14-1.6,1.14ZM59.33,105.02h.43c1.32,0,1.94.2,2.22.37.22.13.47.36.47.94s-.25.81-.47.94c-.28.17-.9.37-2.22.37h-.43v-2.62Z"/><path class="cls-1" d="M81.46,103.66c0,.51-.02,1.03-.06,1.57-.03.47-.14.9-.32,1.28-.16.34-.4.62-.73.84-.32.21-.81.32-1.47.32s-1.16-.11-1.49-.32c-.34-.22-.57-.49-.72-.83-.17-.38-.27-.81-.31-1.29-.04-.53-.06-1.06-.06-1.57v-10.37h-5.87v11.02c0,2.95.71,5.15,2.11,6.55,1.4,1.4,3.53,2.11,6.34,2.11s4.94-.71,6.33-2.11c1.39-1.4,2.09-3.6,2.09-6.55v-11.02h-5.84v10.37Z"/><polygon class="cls-1" points="100.65 93.29 97.65 97.73 94.63 93.29 87.59 93.29 94.69 103.42 94.69 112.46 100.56 112.46 100.56 103.42 107.7 93.29 100.65 93.29"/><path class="cls-1" d="M110.52,93.29l-7.3,19.17h6.27l1.07-3.12h5.83l1.07,3.12h6.28l-7.3-19.17h-5.93ZM114.74,104.59h-2.51l1.26-3.59,1.26,3.59Z"/><polygon class="cls-1" points="210.24 103.21 206.3 93.29 199.92 93.29 207.98 112.46 212.49 112.46 220.57 93.29 214.19 93.29 210.24 103.21"/><rect class="cls-1" x="222.15" y="93.29" width="5.87" height="19.17"/><path class="cls-1" d="M240.64,100.33c-.39-.13-.78-.25-1.18-.37-.35-.1-.67-.22-.95-.36-.24-.12-.43-.25-.58-.41-.05-.06-.13-.16-.13-.38,0-.27.1-.47.33-.64.51-.38,1.43-.42,2.38-.05.45.18.91.45,1.37.83l.57.46,2.46-4.83-.52-.28c-.93-.49-1.91-.88-2.93-1.14-2.12-.54-4.13-.51-5.73.08-.84.31-1.57.76-2.16,1.34-.59.57-1.05,1.27-1.38,2.06-.32.79-.48,1.68-.48,2.64s.16,1.81.47,2.46c.31.65.73,1.21,1.25,1.64.5.42,1.08.76,1.71,1.02.6.24,1.21.45,1.8.64.5.17.92.33,1.27.47.31.12.55.25.73.39.14.11.25.22.3.33.06.12.08.27.08.44,0,.28-.12.52-.37.76-.51.47-1.86.5-3.09-.04-.62-.27-1.26-.7-1.92-1.28l-.57-.5-2.61,4.9.43.3c2.03,1.42,4.27,2.13,6.66,2.13,1.16,0,2.22-.16,3.14-.47.94-.32,1.75-.77,2.4-1.36.66-.59,1.17-1.31,1.51-2.14.34-.81.51-1.73.51-2.73,0-1.5-.4-2.75-1.2-3.71-.77-.93-1.99-1.68-3.62-2.23Z"/><rect class="cls-1" x="248.39" y="93.29" width="5.87" height="19.17"/><path class="cls-1" d="M275.34,95.7c-.93-.91-2.06-1.63-3.36-2.14-1.29-.51-2.71-.77-4.23-.77s-2.96.26-4.24.77c-1.29.52-2.41,1.24-3.33,2.14-.93.91-1.66,1.99-2.18,3.21-.52,1.22-.79,2.56-.79,3.97s.27,2.75.79,3.97c.52,1.22,1.25,2.3,2.18,3.21.92.91,2.04,1.63,3.33,2.14,1.28.51,2.71.77,4.24.77s2.94-.26,4.23-.77c1.29-.51,2.42-1.23,3.36-2.14.93-.91,1.67-1.99,2.2-3.21.52-1.22.79-2.56.79-3.97s-.26-2.75-.79-3.97c-.52-1.22-1.26-2.3-2.2-3.21ZM272.24,102.87c0,.63-.12,1.21-.35,1.74-.24.53-.57,1-.97,1.39-.41.39-.89.7-1.43.92-1.09.44-2.36.43-3.44,0-.54-.22-1.02-.53-1.42-.91-.4-.39-.73-.86-.97-1.39-.23-.53-.35-1.11-.35-1.74s.12-1.21.35-1.73c.24-.53.57-1,.97-1.39.4-.39.88-.7,1.42-.91.54-.22,1.12-.33,1.72-.33s1.17.11,1.72.33c.54.22,1.02.53,1.43.92.41.39.74.85.97,1.38.23.53.35,1.11.35,1.74Z"/><polygon class="cls-1" points="294.58 93.29 294.58 103.15 286.84 93.29 281.27 93.29 281.27 112.46 287.14 112.46 287.14 102.6 294.89 112.46 300.42 112.46 300.42 93.29 294.58 93.29"/><path class="cls-1" d="M189.98,65.77c-2.07-.08-7.75-.29-11.11-.69.03-.11.05-.22.05-.33v-13.11c0-.45-.24-.86-.62-1.08l-9.29-5.37c-.4-.23-.88-.22-1.27.01l-10.4,6.3c-.41.25-.92.24-1.32-.02l-10.14-6.49c-.38-.24-.86-.26-1.26-.05l-9.81,5.2c-.41.22-.67.64-.67,1.11v13.59c0,.1.01.19.03.28-3.39.39-8.87.59-10.89.67-.66.03-1.19.57-1.2,1.23l-.2,16.78c0,.94.59,1.69,1.31,1.65,3.14-.2,12.87-.89,17.14-2.82,2.61-1.18,6.53-3.13,9.9-4.83l5.49,4.21c.45.34,1.07.34,1.52,0l5.61-4.3c3.41,1.72,7.42,3.72,10.08,4.92,4.27,1.93,14,2.62,17.14,2.82.72.05,1.32-.71,1.31-1.65l-.2-16.78c0-.66-.53-1.21-1.2-1.23ZM155.82,71.6l-9.48-7.48c-.3-.24-.48-.6-.48-.98v-3.78c0-.5.3-.96.77-1.15l2.98-1.25c.39-.16.83-.12,1.18.11l5.13,3.41c.41.27.94.28,1.36.02l5.2-3.28c.3-.19.68-.24,1.02-.14l3.06.91c.53.16.89.65.89,1.2v3.96c0,.39-.18.75-.48.99l-9.61,7.49c-.45.35-1.09.35-1.54,0Z"/><path class="cls-1" d="M124.08,47.48h7.17c.67,0,1.22-.53,1.25-1.19l1.73-11.9c.03-.67.58-1.19,1.25-1.19h41.69c.67,0,1.22.52,1.25,1.19l1.73,11.2c.03.67.58,1.19,1.25,1.19h6.65c.72,0,1.29-.61,1.25-1.33l-2.27-17.77c-.04-.66-.59-1.17-1.25-1.17l-59.18.11c-.66,0-1.21.52-1.25,1.17-.21,3.51-2.05,14.51-2.5,18.29-.09.74.49,1.4,1.24,1.4Z"/><path class="cls-1" d="M136.86,34.62c-.69,0-1.25.56-1.25,1.25l-.03,9.26c0,.95,1.01,1.55,1.84,1.1l5.8-3.13c.4-.22.66-.64.66-1.1l.02-6.15c0-.69-.56-1.26-1.25-1.25h-5.79Z"/><path class="cls-1" d="M125.96,15.05l.11,3.34c.02.67.56,1.21,1.23,1.22,4.77.04,24-.09,34.94-.51,10.82-.41,18.55-1.2,22.18-1.53.64-.06,1.13-.6,1.13-1.25v-6.37c0-.78-.71-1.37-1.48-1.23-3.09.58-9.77,1.94-21.86,3.21-10.3,1.08-23.75,1.56-31.08,1.74.09-.26.29-.77.56-1.19.18-.27.45-.44.62-1.1.18-.71,0-1.37,0-1.37,0,0,.42-.28.4-.96,0-.25-.22-.53-.36-.69.28.03.52.07.64.13.34.17.64.66,1.41.42.77-.24,1.19-.82,1.19-.82,0,0-.52.23-1.08.02-.42-.15-.79-.51-1.48-.33-.11.03-.27.07-.45.11.35-.39.83-1.17.81-2.47-.03-1.91-1.06-2.92-1.06-2.92l-1-2.38c-.1-.19-.37-.17-.45.03l-1.02,1.8h-.59l-.94-1.79c-.09-.19-.36-.19-.45,0l-.73,2.32s-1.09,1.05-1.09,3.02c0,1.29.62,2.2,1.44,2.76,0,0-.33.36-.35.98-.01.5.43.88.43.88-.08-.17-.19.57.04,1.19.27.7.51.84.75,1.29.17.34.44.87.56,1.12-.69.01-1.29.03-1.77.03-.7.01-1.25.59-1.23,1.28ZM127.47,7.52c-.52-.73-.59-2.37-.03-3.17.55-.79,1.26-1.15,2.35-1.15s2.14.71,2.5,1.25c.38.58.47,2.47-.21,3.11-.57.54-1.35.8-2.26.8s-1.94-.26-2.35-.83ZM130.04,12.37l.1,1.33c-.06,0-.11,0-.17,0l.07-1.33Z"/><path class="cls-1" d="M133.61,20.25c-.86,0-1.46.84-1.18,1.66l1.06,3.1c.17.51.65.85,1.18.85h8.48c.69,0,1.25-.56,1.25-1.25v-3.1c0-.69-.56-1.25-1.25-1.25h-9.54Z"/><path class="cls-1" d="M150.35,20.51c-.69,0-1.24.56-1.24,1.25v2.67c0,.69.56,1.25,1.25,1.25h9.03c.69,0,1.25-.56,1.25-1.25v-2.74c0-.69-.57-1.26-1.26-1.25l-9.03.07Z"/><path class="cls-1" d="M168.25,20.19c-.53.04-.98.41-1.11.93l-.83,3.15c-.21.79.39,1.57,1.21,1.57h8.75c.51,0,.97-.31,1.16-.78l1.58-3.89c.35-.86-.33-1.79-1.26-1.72l-9.51.74Z"/><path class="cls-1" d="M147.36,35.55c-.83-.43-1.82.18-1.82,1.11v4.99c0,.42.21.82.57,1.05l10.29,6.68c.4.26.92.27,1.33.02l5.71-3.48c.83-.51.79-1.73-.08-2.18l-16-8.19Z"/><path class="cls-1" d="M175.69,34.6h-5.76c-.69,0-1.25.56-1.25,1.25v6.15c-.01.45.23.87.62,1.09l5.8,3.26c.84.47,1.87-.14,1.86-1.09l-.03-9.41c0-.69-.56-1.25-1.25-1.25Z"/><path class="cls-1" d="M167.33,42.18l-.03-6.33c0-.69-.56-1.25-1.25-1.25h-5.76c-.69,0-1.25.56-1.25,1.25v3.27c-.01.47.24.89.66,1.11l5.8,3.05c.83.44,1.84-.17,1.83-1.11Z"/><path class="cls-1" d="M130.72,6.83s-.24-.44-.79-.43c-.58.01-.78.42-.78.42.26-.11.38-.21.78-.21s.78.21.78.21Z"/><path class="cls-1" d="M129.96,7.23s.04.15.12.23c.09.09.3.17.49.06.15-.08.15-.25-.02-.15-.18.11-.39.02-.46-.09-.02-.03-.03-.07-.04-.11.31-.06.28-.38-.09-.39-.39,0-.42.33-.1.39,0,.05-.02.1-.05.13-.11.12-.27.19-.5.08-.15-.07-.13.1-.04.14.22.11.42.04.56-.08.08-.07.12-.22.12-.22Z"/><path class="cls-1" d="M129.92,5.32c0-.58-.24-1.25-.93-1.25s-.95.76-.95,1.27.34,1.19,1.02,1.15c.68-.03.86-.59.86-1.17ZM129.05,6.29c-.54.03-.81-.52-.81-.94s.22-1.04.75-1.04.74.55.74,1.02-.15.93-.69.95Z"/><path class="cls-1" d="M130.78,6.48c.68.03,1.02-.64,1.02-1.15s-.27-1.27-.95-1.27-.93.68-.93,1.25.19,1.14.86,1.17ZM130.84,4.31c.54,0,.75.62.75,1.04s-.27.97-.81.94c-.54-.03-.69-.48-.69-.95s.19-1.02.74-1.02Z"/><path class="cls-1" d="M129.03,4.85c-.26,0-.48.26-.48.59s.21.59.48.59.48-.26.48-.59-.21-.59-.48-.59Z"/><path class="cls-1" d="M130.79,5.97c.26,0,.48-.26.48-.59s-.21-.59-.48-.59-.48.26-.48.59.21.59.48.59Z"/><path class="cls-1" d="M25.1,63.89c-2.51-.27-9.25-1.12-14.87-2.81-4.17-1.25-6.96-2.47-8.55-3.26-.75-.37-1.63.17-1.63,1L0,66.98c0,.45.15.87.42,1.15,1.08,1.13,4.29,4.3,10.42,8.83,5.66,4.18,11.18,7.22,13.75,8.42.73.34,1.5-.37,1.5-1.38v-18.98c0-.58-.43-1.06-1-1.12Z"/><path class="cls-1" d="M72.45,64.83c-2.4-.12-8.48-.56-14.38-2.07-4.02-1.03-6.52-1.91-7.93-2.48-.74-.3-1.54.24-1.54,1.04l-.05,7.19c0,.36.1.7.28.97.83,1.24,3.65,4.99,9.95,9.65,5.75,4.25,11.07,5.86,13.44,6.34.69.14,1.3-.55,1.3-1.45v-18.07c0-.6-.47-1.1-1.07-1.13Z"/><path class="cls-1" d="M23.3,47.41H6.53c-.63,0-1.13.51-1.13,1.13l.05,8.24c0,.62.51,1.12,1.13,1.12h16.71c.62,0,1.13-.5,1.13-1.13v-8.24c0-.62-.5-1.13-1.13-1.13Z"/><path class="cls-1" d="M6.81,45.7c1.82-.38,5.3-1.19,9.24-2.52,4.12-1.39,6.71-2.71,7.8-3.31.36-.2.58-.57.58-.99v-11.86c0-.93-1.06-1.46-1.8-.9-1.7,1.27-4.31,3.16-6.54,4.49-3.76,2.25-8.21,3.96-9.95,4.59-.45.16-.74.59-.74,1.07l.05,8.33c0,.71.66,1.24,1.35,1.1Z"/><path class="cls-1" d="M67.56,44.71c.62,0,1.13-.5,1.13-1.13v-6.56c0-.62-.5-1.13-1.13-1.13h-11.51c-.62,0-1.13-.5-1.13-1.13v-.68c0-.62.5-1.13,1.13-1.13h9.03c.62,0,1.13-.5,1.13-1.13v-4.75c0-.65-.54-1.16-1.19-1.13l-8.91.47c-.64.03-1.19-.48-1.19-1.13v-.87c0-.62-.5-1.13-1.13-1.13h-6.33c-.62,0-1.13.5-1.13,1.13v10.21c0,.62-.5,1.13-1.13,1.13h-2.08c-.62,0-1.13-.5-1.13-1.13v-9.74c0-.62-.5-1.13-1.13-1.13h-5.54c-.62,0-1.12.5-1.13,1.12l-.07,9.52c0,.62-.51,1.12-1.13,1.12h-4.26c-.62,0-1.13.5-1.13,1.13v6.92c0,.62.5,1.13,1.13,1.13h38.81Z"/><path class="cls-1" d="M44.75,48.31h-14.95c-.62,0-1.12.49-1.13,1.11-.02,1.89.02,5.72.04,7.61,0,.62.51,1.11,1.13,1.11h14.9c.62,0,1.13-.5,1.13-1.13v-7.57c0-.62-.5-1.13-1.13-1.13Z"/><path class="cls-1" d="M65.83,46.69c-1.57.28-4.46.73-8.12,1.07-2.6.24-6.25.38-8.01.43-.6.02-1.08.5-1.09,1.11-.02,1.87.02,5.69.04,7.6,0,.63.53,1.13,1.16,1.11,1.93-.07,5.92-.22,9.05-.46,3.03-.23,5.92-.66,7.35-.9.54-.09.94-.56.94-1.11v-7.74c0-.7-.63-1.23-1.32-1.11Z"/><path class="cls-1" d="M44.09,60.71c-.88.42-2.13.91-3.75,1.34-2.74.73-9.14,1.47-10.9,1.79-.53.09-.92.55-.93,1.09-.05,2.98,0,13.71.03,19.19,0,1.18.91,1.71,1.76,1.2,2.29-1.37,6.62-5.25,9.09-7.92,3.21-3.47,5.42-6.75,6.07-7.87.15-.25.23-.56.23-.88v-6.91c0-.83-.86-1.37-1.61-1.02Z"/><path class="cls-1" d="M210.44,36.12l6.71-1.84c.57-.16.96-.67.97-1.26l.12-8.89c.01-.87-.8-1.51-1.65-1.3l-6.89,1.75c-.59.15-1,.68-1,1.29.01,2.02.05,6.51.07,8.98,0,.87.83,1.49,1.67,1.26Z"/><path class="cls-1" d="M221.72,33.12l6.71-1.84c.57-.16.96-.67.97-1.26l.12-8.89c.01-.87-.8-1.51-1.65-1.3l-6.89,1.75c-.59.15-1,.68-1,1.29.01,2.02.05,6.51.07,8.98,0,.87.83,1.49,1.67,1.26Z"/><path class="cls-1" d="M229.69,64.87h-23.46c-.73,0-1.32-.59-1.32-1.32v-8.44c0-.59.39-1.11.96-1.27l22.6-6.5c.57-.16.96-.68.96-1.27v-9.64c0-.86-.82-1.5-1.65-1.28l-21.03,5.49c-.84.22-1.65-.41-1.65-1.28v-11.88c0-.86-.8-1.49-1.64-1.28l-8.82,2.17c-.59.15-1.01.67-1.01,1.28v54.15c0,.95.59,1.72,1.32,1.72h34.75c.73,0,1.32-.77,1.32-1.72v-17.6c0-.73-.59-1.32-1.32-1.32Z"/><path class="cls-1" d="M262.88,60.27c-1.72.57-4.86,1.47-10.04,2.54-7.39,1.52-15,1.96-17.94,2.08-.71.03-1.27.61-1.27,1.32v17.52c0,1.03.69,1.83,1.48,1.71,2.88-.46,9.59-1.91,16.85-6.23,7.64-4.54,11.15-8.21,12.28-9.55.28-.33.43-.79.43-1.28l-.06-6.86c0-.9-.89-1.53-1.74-1.24Z"/><path class="cls-1" d="M234.26,33.41l19.48,6.35c.85.28,1.72-.35,1.73-1.24.02-2.43.06-7.28.08-9.19,0-.59-.38-1.1-.94-1.27l-19.43-5.88c-.84-.25-1.69.37-1.7,1.24l-.12,8.72c0,.58.36,1.1.91,1.28Z"/><path class="cls-1" d="M253.5,53.75c.85.28,1.72-.35,1.73-1.24.02-2.43.06-7.28.08-9.19,0-.59-.38-1.1-.94-1.27l-19.43-5.88c-.84-.25-1.69.37-1.7,1.24l-.12,8.72c0,.58.36,1.1.91,1.28l19.48,6.35Z"/><path class="cls-1" d="M258.34,34.1c0,.73.59,1.32,1.32,1.32h6.17c.73,0,1.32-.59,1.32-1.32v-9.47c0-.73-.59-1.32-1.32-1.32h-6.21c-.74,0-1.34.61-1.32,1.35.05,2.34.05,7.12.04,9.44Z"/><path class="cls-1" d="M269.45,33.98c0,.73.59,1.32,1.32,1.32h6.17c.73,0,1.32-.59,1.32-1.32v-9.47c0-.73-.59-1.32-1.32-1.32h-6.21c-.74,0-1.34.61-1.32,1.35.05,2.34.04,7.12.04,9.44Z"/><path class="cls-1" d="M283.38,37.4h-17.99c-.74,0-1.33.6-1.32,1.34l.1,6.32c.01.72.6,1.3,1.32,1.3h6.8c.73,0,1.32.59,1.32,1.32v.41c0,.73-.59,1.32-1.32,1.32h-3.59c-.73,0-1.32.59-1.32,1.32v6.19c0,.73.59,1.32,1.32,1.32h3.71c.73,0,1.32.59,1.32,1.32v1.27c0,.97-1.02,1.61-1.89,1.19l-2.8-1.35c-.88-.42-1.89.22-1.89,1.19v6.7c0,.41.11.81.32,1.12.74,1.12,2.78,3.92,5.28,6.69,2.09,2.31,7.15,6.51,9.9,8.1,1,.58,2.05-.06,2.05-1.43v-44.31c0-.73-.59-1.32-1.32-1.32Z"/><path class="cls-1" d="M313.21,55.51c0-.97-1.02-1.61-1.89-1.18-1.63.79-4.34,1.95-8.28,3.13-5.5,1.65-12.07,2.5-14.7,2.79-.67.07-1.18.64-1.18,1.31v21.75c0,1.19.91,2.02,1.77,1.62,2.67-1.26,8.01-3.99,13.49-8.03,6-4.43,9.21-7.56,10.35-8.75.31-.33.49-.82.49-1.34l-.05-11.28Z"/><path class="cls-1" d="M289.52,42.86c1.14.62,3.7,1.91,7.7,3.25,3.77,1.27,7.12,2.07,9,2.47.82.17,1.59-.45,1.59-1.29l.05-10.94c0-.56-.34-1.05-.86-1.25-1.81-.66-6.15-2.34-9.82-4.54-2.1-1.25-4.53-3-6.23-4.26-.87-.65-2.11-.02-2.11,1.06v14.34c0,.48.26.92.68,1.15Z"/><path class="cls-1" d="M119.6,42.31l-22.74-6.91c-.21-.06-.44-.07-.65,0l-22.94,6.78c-.48.14-.81.59-.81,1.09l.07,8.78c0,.75.73,1.29,1.45,1.07l22.47-6.75c.22-.06.45-.06.66,0l21.81,6.89c.73.23,1.47-.31,1.47-1.07v-8.81c0-.5-.32-.93-.8-1.08Z"/><path class="cls-1" d="M73.99,39.6l19-5.38c.49-.14.83-.59.82-1.1l-.1-8.55c0-.73-.7-1.26-1.41-1.08l-18.96,4.9c-.5.13-.85.58-.84,1.1.01,1.94.05,6.62.07,9.03,0,.74.72,1.28,1.43,1.07Z"/><path class="cls-1" d="M99.83,34.16l19,5.38c.72.2,1.43-.33,1.43-1.07.02-2.4.05-7.09.07-9.03,0-.52-.34-.97-.85-1.1l-18.96-4.9c-.71-.18-1.4.35-1.41,1.08l-.1,8.55c0,.51.33.96.82,1.1Z"/><path class="cls-1" d="M116.56,54.7l-19.78-5.87c-.21-.06-.43-.06-.63,0l-19.85,5.73c-.48.14-.82.58-.81,1.09l.05,28.4c0,.81.51,1.46,1.13,1.46h39.58c.62,0,1.13-.66,1.13-1.47v-28.26c0-.5-.33-.94-.81-1.08ZM105.53,80.78c0,.42-.34.75-.75.75h-16.36c-.42,0-.75-.34-.75-.75v-24.46c0-.42.36-.79.75-.91l8.14-2.47,8.23,2.47c.37.14.75.5.75.91v24.46Z"/><path class="cls-1" d="M102.07,66.64c0-2.1,1.23-2.19,1.23-2.19v-7.51h-13.4v7.51s1.25.1,1.25,2.19-1.25,2.17-1.25,2.17v5.45h13.4v-5.57s-1.23-.13-1.23-2.05ZM101.16,71.88h-8.89v-12.62h8.89v12.62Z"/><rect class="cls-1" x="89.88" y="74.78" width="13.42" height="3.81"/><path class="cls-1" d="M96.52,54.88c-1.84,0-2.4,1.44-2.4,1.44h4.95s-.61-1.44-2.55-1.44Z"/><path class="cls-1" d="M92.35,79.55c-.86,0-.86,1.22,0,1.22h3.65v-1.72s-3.17,0-3.17,0c0,0-.06.52-.48.52Z"/><path class="cls-1" d="M101.09,79.55c-.42,0-.48-.52-.48-.52h-3.18s0,1.73,0,1.73h3.65c.86,0,.86-1.22,0-1.22Z"/><path class="cls-1" d="M90.81,66.69c0-1.48-.55-1.74-1-1.74-.39,0-1.03.19-1.03,1.75s.68,1.64,1.05,1.64.98-.16.98-1.65Z"/><path class="cls-1" d="M103.45,64.94c-.39,0-1.03.19-1.03,1.75s.68,1.64,1.05,1.64.98-.16.98-1.65-.55-1.74-1-1.74Z"/></g></svg>